# xmcd
#
# Track frame offsets:
#	150
#	16052
#	30731
#	46636
#	63829
#	82157
#	97172
#	114850
#	129525
#	143132
#	158396
#
# Disc length: 2319 seconds
#
# Revision: 1
# Processed by: cddbd v1.5.2PL0 Copyright (c) Steve Scherf et al.
# Submitted via: audiograbber 1.82.01
#
DISCID=7f090d0b
DTITLE=VON - VON
DYEAR=2010
DGENRE=Country
TTITLE0=Det Æ Såmmår
TTITLE1=Nå Vil E Heim
TTITLE2=Oss To
TTITLE3=I Natt
TTITLE4=Få Att Ein Dag
TTITLE5=Keinn Ikkje Ljuge
TTITLE6=Sang Ved Døre
TTITLE7=Gamle Kjente
TTITLE8=Der Og Da
TTITLE9=Læ Me Gå I Fred
TTITLE10=Kveldsstond
EXTD=
EXTT0=
EXTT1=
EXTT2=
EXTT3=
EXTT4=
EXTT5=
EXTT6=
EXTT7=
EXTT8=
EXTT9=
EXTT10=
PLAYORDER=
